<?xml version="1.0" encoding="iso-8859-1"?>
<!-- Generator: Adobe Illustrator 19.0.0, SVG Export Plug-In . SVG Version: 6.00 Build 0)  -->
<svg version="1.1" id="Layer_1" xmlns="http://www.w3.org/2000/svg" xmlns:xlink="http://www.w3.org/1999/xlink" x="0px" y="0px"
	 viewBox="0 0 512 512" style="enable-background:new 0 0 512 512;" xml:space="preserve">
<path style="fill:#415E5C;" d="M55.652,377.867v78.443c0,3.094-2.492,5.603-5.565,5.603H5.565c-3.073,0-5.565-2.509-5.565-5.603
	v-78.443c0-3.094,2.492-5.603,5.565-5.603h44.522C53.16,372.264,55.652,374.773,55.652,377.867z M506.435,372.264h-44.522
	c-3.073,0-5.565,2.509-5.565,5.603v78.443c0,3.094,2.492,5.603,5.565,5.603h44.522c3.073,0,5.565-2.509,5.565-5.603v-78.443
	C512,374.773,509.508,372.264,506.435,372.264z"/>
<path style="fill:#5B7F81;" d="M0,50.087h511.998v377.932H0V50.087L0,50.087z"/>
<path style="fill:#415E5C;" d="M512,109.62v258.864H371.975V109.62H512z"/>
<path style="fill:#97BAA8;" d="M54.756,109.62h329.243v258.864H54.756V109.62L54.756,109.62z"/>
<path style="fill:#B1D7C5;" d="M100.174,368.484H54.756V109.62h223.505L100.174,368.484z"/>
<path style="fill:#234848;" d="M425.173,148.814c0-12.75,10.218-23.085,22.827-23.085c12.606,0,22.83,10.335,22.83,23.085
	c0,12.749-10.223,23.085-22.83,23.085C435.39,171.897,425.173,161.563,425.173,148.814z M470.83,242.697h-3.369
	c-4.917,0-8.904,4.014-8.904,8.964s3.987,8.964,8.904,8.964h3.369c4.917,0,8.904-4.014,8.904-8.964S475.747,242.697,470.83,242.697z
	 M458.555,203.651c0,4.951,3.987,8.964,8.904,8.964h3.369c4.917,0,8.904-4.014,8.904-8.964c0-4.951-3.987-8.964-8.904-8.964h-3.369
	C462.542,194.686,458.555,198.701,458.555,203.651z M425.173,212.616h3.369c4.917,0,8.904-4.014,8.904-8.964
	c0-4.951-3.987-8.964-8.904-8.964h-3.369c-4.917,0-8.904,4.014-8.904,8.964C416.268,208.602,420.254,212.616,425.173,212.616z
	 M425.173,260.627h3.369c4.917,0,8.904-4.014,8.904-8.964s-3.987-8.964-8.904-8.964h-3.369c-4.917,0-8.904,4.014-8.904,8.964
	S420.254,260.627,425.173,260.627z M470.83,290.702h-45.657c-4.917,0-8.904,4.014-8.904,8.964s3.987,8.964,8.904,8.964h45.657
	c4.917,0,8.904-4.014,8.904-8.964S475.747,290.702,470.83,290.702z M470.83,331.922h-45.657c-4.917,0-8.904,4.014-8.904,8.964
	s3.987,8.964,8.904,8.964h45.657c4.917,0,8.904-4.014,8.904-8.964S475.747,331.922,470.83,331.922z"/>
<path style="fill:#FFFFFF;" d="M244.753,179.462l-89.626,129.437c-1.731,2.5-4.499,3.839-7.312,3.839
	c-1.759,0-3.533-0.522-5.084-1.612c-4.035-2.832-5.024-8.42-2.212-12.482l89.626-129.437c2.812-4.061,8.362-5.059,12.397-2.227
	C246.575,169.811,247.564,175.4,244.753,179.462z M166.49,167.746c-4.035-2.833-9.584-1.835-12.397,2.227l-39.663,57.278
	c-2.813,4.062-1.822,9.649,2.212,12.481c1.552,1.09,3.327,1.612,5.084,1.612c2.813,0,5.581-1.339,7.312-3.839l39.663-57.278
	C171.514,176.165,170.525,170.577,166.49,167.746z M271.191,239.141c-4.034-2.832-9.584-1.835-12.397,2.227l-39.663,57.277
	c-2.813,4.061-1.822,9.65,2.212,12.482c1.552,1.09,3.327,1.612,5.084,1.612c2.813,0,5.581-1.339,7.312-3.839l39.663-57.277
	C276.216,247.56,275.226,241.972,271.191,239.141z"/>
<g>
</g>
<g>
</g>
<g>
</g>
<g>
</g>
<g>
</g>
<g>
</g>
<g>
</g>
<g>
</g>
<g>
</g>
<g>
</g>
<g>
</g>
<g>
</g>
<g>
</g>
<g>
</g>
<g>
</g>
</svg>
